<?xml version="1.0" encoding="UTF-8"?>
<svg version="1.1" xmlns="http://www.w3.org/2000/svg" width="320" height="320">
<path d="M0 0 C105.6 0 211.2 0 320 0 C320 105.6 320 211.2 320 320 C214.4 320 108.8 320 0 320 C0 214.4 0 108.8 0 0 Z " fill="#BD6968" transform="translate(0,0)"/>
<path d="M0 0 C92.4 0 184.8 0 280 0 C280 2.64 280 5.28 280 8 C282.64 8 285.28 8 288 8 C288 13.28 288 18.56 288 24 C290.64 24 293.28 24 296 24 C296 31.92 296 39.84 296 48 C298.64 48 301.28 48 304 48 C304 63.84 304 79.68 304 96 C296.08 96 288.16 96 280 96 C280 93.36 280 90.72 280 88 C269.44 88 258.88 88 248 88 C248 85.36 248 82.72 248 80 C232.16 80 216.32 80 200 80 C200 77.36 200 74.72 200 72 C176.24 72 152.48 72 128 72 C128 74.64 128 77.28 128 80 C122.72 80 117.44 80 112 80 C112 82.64 112 85.28 112 88 C109.36 88 106.72 88 104 88 C104 90.64 104 93.28 104 96 C98.72 96 93.44 96 88 96 C88 98.64 88 101.28 88 104 C82.72 104 77.44 104 72 104 C72 106.64 72 109.28 72 112 C66.72 112 61.44 112 56 112 C56 119.92 56 127.84 56 136 C58.64 136 61.28 136 64 136 C64 133.36 64 130.72 64 128 C66.64 128 69.28 128 72 128 C72 191.36 72 254.72 72 320 C48.24 320 24.48 320 0 320 C0 214.4 0 108.8 0 0 Z " fill="#C2B7B6" transform="translate(0,0)"/>
<path d="M0 0 C2.64 0 5.28 0 8 0 C8 2.64 8 5.28 8 8 C10.64 8 13.28 8 16 8 C16 13.28 16 18.56 16 24 C18.64 24 21.28 24 24 24 C24 29.28 24 34.56 24 40 C26.64 40 29.28 40 32 40 C32 45.28 32 50.56 32 56 C34.64 56 37.28 56 40 56 C40 58.64 40 61.28 40 64 C42.64 64 45.28 64 48 64 C48 66.64 48 69.28 48 72 C50.64 72 53.28 72 56 72 C56 74.64 56 77.28 56 80 C58.64 80 61.28 80 64 80 C64 82.64 64 85.28 64 88 C69.28 88 74.56 88 80 88 C80 90.64 80 93.28 80 96 C82.64 96 85.28 96 88 96 C88 103.92 88 111.84 88 120 C85.36 120 82.72 120 80 120 C80 122.64 80 125.28 80 128 C77.36 128 74.72 128 72 128 C72 130.64 72 133.28 72 136 C66.72 136 61.44 136 56 136 C56 138.64 56 141.28 56 144 C50.72 144 45.44 144 40 144 C40 146.64 40 149.28 40 152 C34.72 152 29.44 152 24 152 C24 154.64 24 157.28 24 160 C16.08 160 8.16 160 0 160 C0 162.64 0 165.28 0 168 C-21.12 168 -42.24 168 -64 168 C-64 165.36 -64 162.72 -64 160 C-69.28 160 -74.56 160 -80 160 C-80 157.36 -80 154.72 -80 152 C-82.64 152 -85.28 152 -88 152 C-88 149.36 -88 146.72 -88 144 C-93.28 144 -98.56 144 -104 144 C-104 112.32 -104 80.64 -104 48 C-96.08 48 -88.16 48 -80 48 C-80 45.36 -80 42.72 -80 40 C-74.72 40 -69.44 40 -64 40 C-64 37.36 -64 34.72 -64 32 C-58.72 32 -53.44 32 -48 32 C-48 29.36 -48 26.72 -48 24 C-45.36 24 -42.72 24 -40 24 C-40 21.36 -40 18.72 -40 16 C-32.08 16 -24.16 16 -16 16 C-16 13.36 -16 10.72 -16 8 C-10.72 8 -5.44 8 0 8 C0 5.36 0 2.72 0 0 Z " fill="#FFCFCD" transform="translate(232,128)"/>
<path d="M0 0 C26.4 0 52.8 0 80 0 C80 2.64 80 5.28 80 8 C77.36 8 74.72 8 72 8 C72 15.92 72 23.84 72 32 C69.36 32 66.72 32 64 32 C64 53.12 64 74.24 64 96 C61.36 96 58.72 96 56 96 C56 90.72 56 85.44 56 80 C53.36 80 50.72 80 48 80 C48 93.2 48 106.4 48 120 C45.36 120 42.72 120 40 120 C40 127.92 40 135.84 40 144 C42.64 144 45.28 144 48 144 C48 149.28 48 154.56 48 160 C45.36 160 42.72 160 40 160 C40 162.64 40 165.28 40 168 C37.36 168 34.72 168 32 168 C32 204.96 32 241.92 32 280 C34.64 280 37.28 280 40 280 C40 293.2 40 306.4 40 320 C26.8 320 13.6 320 0 320 C0 214.4 0 108.8 0 0 Z " fill="#135CED" transform="translate(0,0)"/>
<path d="M0 0 C2.64 0 5.28 0 8 0 C8 23.76 8 47.52 8 72 C-58 72 -124 72 -192 72 C-192 66.72 -192 61.44 -192 56 C-189.36 56 -186.72 56 -184 56 C-184 53.36 -184 50.72 -184 48 C-149.68 48 -115.36 48 -80 48 C-80 45.36 -80 42.72 -80 40 C-72.08 40 -64.16 40 -56 40 C-56 37.36 -56 34.72 -56 32 C-50.72 32 -45.44 32 -40 32 C-40 29.36 -40 26.72 -40 24 C-34.72 24 -29.44 24 -24 24 C-24 21.36 -24 18.72 -24 16 C-18.72 16 -13.44 16 -8 16 C-8 13.36 -8 10.72 -8 8 C-5.36 8 -2.72 8 0 8 C0 5.36 0 2.72 0 0 Z " fill="#DBB1AF" transform="translate(312,248)"/>
<path d="M0 0 C2.64 0 5.28 0 8 0 C8 63.36 8 126.72 8 192 C-2.56 192 -13.12 192 -24 192 C-24 178.8 -24 165.6 -24 152 C-26.64 152 -29.28 152 -32 152 C-32 115.04 -32 78.08 -32 40 C-29.36 40 -26.72 40 -24 40 C-24 37.36 -24 34.72 -24 32 C-21.36 32 -18.72 32 -16 32 C-16 26.72 -16 21.44 -16 16 C-13.36 16 -10.72 16 -8 16 C-8 13.36 -8 10.72 -8 8 C-5.36 8 -2.72 8 0 8 C0 5.36 0 2.72 0 0 Z " fill="#C2B7B6" transform="translate(64,128)"/>
<path d="M0 0 C2.64 0 5.28 0 8 0 C8 2.64 8 5.28 8 8 C10.64 8 13.28 8 16 8 C16 10.64 16 13.28 16 16 C18.64 16 21.28 16 24 16 C24 18.64 24 21.28 24 24 C26.64 24 29.28 24 32 24 C32 26.64 32 29.28 32 32 C34.64 32 37.28 32 40 32 C40 68.96 40 105.92 40 144 C37.36 144 34.72 144 32 144 C32 157.2 32 170.4 32 184 C21.44 184 10.88 184 0 184 C0 123.28 0 62.56 0 0 Z " fill="#C2B7B6" transform="translate(80,136)"/>
<path d="M0 0 C13.2 0 26.4 0 40 0 C40 2.64 40 5.28 40 8 C45.28 8 50.56 8 56 8 C56 21.2 56 34.4 56 48 C53.36 48 50.72 48 48 48 C48 53.28 48 58.56 48 64 C29.52 64 11.04 64 -8 64 C-8 61.36 -8 58.72 -8 56 C-10.64 56 -13.28 56 -16 56 C-16 40.16 -16 24.32 -16 8 C-10.72 8 -5.44 8 0 8 C0 5.36 0 2.72 0 0 Z " fill="#EBB9B7" transform="translate(232,200)"/>
<path d="M0 0 C7.92 0 15.84 0 24 0 C24 2.64 24 5.28 24 8 C26.64 8 29.28 8 32 8 C32 15.92 32 23.84 32 32 C34.64 32 37.28 32 40 32 C40 29.36 40 26.72 40 24 C45.28 24 50.56 24 56 24 C56 26.64 56 29.28 56 32 C58.64 32 61.28 32 64 32 C64 39.92 64 47.84 64 56 C61.36 56 58.72 56 56 56 C56 61.28 56 66.56 56 72 C48.08 72 40.16 72 32 72 C32 69.36 32 66.72 32 64 C29.36 64 26.72 64 24 64 C24 58.72 24 53.44 24 48 C21.36 48 18.72 48 16 48 C16 50.64 16 53.28 16 56 C13.36 56 10.72 56 8 56 C8 58.64 8 61.28 8 64 C0.08 64 -7.84 64 -16 64 C-16 61.36 -16 58.72 -16 56 C-18.64 56 -21.28 56 -24 56 C-24 50.72 -24 45.44 -24 40 C-21.36 40 -18.72 40 -16 40 C-16 34.72 -16 29.44 -16 24 C-13.36 24 -10.72 24 -8 24 C-8 18.72 -8 13.44 -8 8 C-5.36 8 -2.72 8 0 8 C0 5.36 0 2.72 0 0 Z " fill="#975453" transform="translate(216,0)"/>
<path d="M0 0 C2.64 0 5.28 0 8 0 C8 2.64 8 5.28 8 8 C10.64 8 13.28 8 16 8 C16 10.64 16 13.28 16 16 C18.64 16 21.28 16 24 16 C24 31.84 24 47.68 24 64 C16.08 64 8.16 64 0 64 C0 69.28 0 74.56 0 80 C-2.64 80 -5.28 80 -8 80 C-8 82.64 -8 85.28 -8 88 C-13.28 88 -18.56 88 -24 88 C-24 82.72 -24 77.44 -24 72 C-26.64 72 -29.28 72 -32 72 C-32 66.72 -32 61.44 -32 56 C-24.08 56 -16.16 56 -8 56 C-8 50.72 -8 45.44 -8 40 C-10.64 40 -13.28 40 -16 40 C-16 32.08 -16 24.16 -16 16 C-13.36 16 -10.72 16 -8 16 C-8 13.36 -8 10.72 -8 8 C-5.36 8 -2.72 8 0 8 C0 5.36 0 2.72 0 0 Z " fill="#000000" transform="translate(104,0)"/>
<path d="M0 0 C13.2 0 26.4 0 40 0 C40 13.2 40 26.4 40 40 C37.36 40 34.72 40 32 40 C32 47.92 32 55.84 32 64 C21.44 64 10.88 64 0 64 C0 58.72 0 53.44 0 48 C-2.64 48 -5.28 48 -8 48 C-8 37.44 -8 26.88 -8 16 C-5.36 16 -2.72 16 0 16 C0 10.72 0 5.44 0 0 Z " fill="#975453" transform="translate(144,0)"/>
<path d="M0 0 C10.56 0 21.12 0 32 0 C32 2.64 32 5.28 32 8 C24.08 8 16.16 8 8 8 C8 39.68 8 71.36 8 104 C13.28 104 18.56 104 24 104 C24 106.64 24 109.28 24 112 C26.64 112 29.28 112 32 112 C32 114.64 32 117.28 32 120 C37.28 120 42.56 120 48 120 C48 122.64 48 125.28 48 128 C34.8 128 21.6 128 8 128 C8 130.64 8 133.28 8 136 C5.36 136 2.72 136 0 136 C0 141.28 0 146.56 0 152 C-2.64 152 -5.28 152 -8 152 C-8 138.8 -8 125.6 -8 112 C-5.36 112 -2.72 112 0 112 C0 75.04 0 38.08 0 0 Z " fill="#000000" transform="translate(120,168)"/>
<path d="M0 0 C5.28 0 10.56 0 16 0 C16 2.64 16 5.28 16 8 C13.36 8 10.72 8 8 8 C8 10.64 8 13.28 8 16 C10.64 16 13.28 16 16 16 C16 21.28 16 26.56 16 32 C13.36 32 10.72 32 8 32 C8 92.72 8 153.44 8 216 C5.36 216 2.72 216 0 216 C0 152.64 0 89.28 0 24 C-2.64 24 -5.28 24 -8 24 C-8 26.64 -8 29.28 -8 32 C-10.64 32 -13.28 32 -16 32 C-16 24.08 -16 16.16 -16 8 C-10.72 8 -5.44 8 0 8 C0 5.36 0 2.72 0 0 Z " fill="#000000" transform="translate(72,104)"/>
<path d="M0 0 C13.2 0 26.4 0 40 0 C40 2.64 40 5.28 40 8 C45.28 8 50.56 8 56 8 C56 13.28 56 18.56 56 24 C34.88 24 13.76 24 -8 24 C-8 18.72 -8 13.44 -8 8 C-5.36 8 -2.72 8 0 8 C0 5.36 0 2.72 0 0 Z " fill="#F0EDE1" transform="translate(128,296)"/>
<path d="M0 0 C2.64 0 5.28 0 8 0 C8 18.48 8 36.96 8 56 C-2.56 56 -13.12 56 -24 56 C-24 45.44 -24 34.88 -24 24 C-18.72 24 -13.44 24 -8 24 C-8 21.36 -8 18.72 -8 16 C-5.36 16 -2.72 16 0 16 C0 10.72 0 5.44 0 0 Z " fill="#F0EDE1" transform="translate(312,264)"/>
<path d="M0 0 C2.64 0 5.28 0 8 0 C8 2.64 8 5.28 8 8 C10.64 8 13.28 8 16 8 C16 23.84 16 39.68 16 56 C10.72 56 5.44 56 0 56 C0 50.72 0 45.44 0 40 C-5.28 40 -10.56 40 -16 40 C-16 32.08 -16 24.16 -16 16 C-13.36 16 -10.72 16 -8 16 C-8 13.36 -8 10.72 -8 8 C-5.36 8 -2.72 8 0 8 C0 5.36 0 2.72 0 0 Z " fill="#975453" transform="translate(104,0)"/>
<path d="M0 0 C2.64 0 5.28 0 8 0 C8 2.64 8 5.28 8 8 C10.64 8 13.28 8 16 8 C16 10.64 16 13.28 16 16 C21.28 16 26.56 16 32 16 C32 18.64 32 21.28 32 24 C18.8 24 5.6 24 -8 24 C-8 26.64 -8 29.28 -8 32 C-10.64 32 -13.28 32 -16 32 C-16 37.28 -16 42.56 -16 48 C-18.64 48 -21.28 48 -24 48 C-24 34.8 -24 21.6 -24 8 C-16.08 8 -8.16 8 0 8 C0 5.36 0 2.72 0 0 Z " fill="#975453" transform="translate(136,272)"/>
<path d="M0 0 C23.76 0 47.52 0 72 0 C72 2.64 72 5.28 72 8 C87.84 8 103.68 8 120 8 C120 10.64 120 13.28 120 16 C101.52 16 83.04 16 64 16 C64 13.36 64 10.72 64 8 C42.88 8 21.76 8 0 8 C0 5.36 0 2.72 0 0 Z " fill="#000000" transform="translate(128,72)"/>
<path d="M0 0 C2.64 0 5.28 0 8 0 C8 36.96 8 73.92 8 112 C5.36 112 2.72 112 0 112 C0 75.04 0 38.08 0 0 Z " fill="#000000" transform="translate(24,168)"/>
<path d="M0 0 C2.64 0 5.28 0 8 0 C8 5.28 8 10.56 8 16 C10.64 16 13.28 16 16 16 C16 37.12 16 58.24 16 80 C5.44 80 -5.12 80 -16 80 C-16 77.36 -16 74.72 -16 72 C-8.08 72 -0.16 72 8 72 C8 56.16 8 40.32 8 24 C5.36 24 2.72 24 0 24 C0 16.08 0 8.16 0 0 Z " fill="#975453" transform="translate(296,24)"/>
<path d="M0 0 C2.64 0 5.28 0 8 0 C8 5.28 8 10.56 8 16 C5.36 16 2.72 16 0 16 C0 21.28 0 26.56 0 32 C-2.64 32 -5.28 32 -8 32 C-8 34.64 -8 37.28 -8 40 C-13.28 40 -18.56 40 -24 40 C-24 37.36 -24 34.72 -24 32 C-29.28 32 -34.56 32 -40 32 C-40 29.36 -40 26.72 -40 24 C-34.72 24 -29.44 24 -24 24 C-24 21.36 -24 18.72 -24 16 C-18.72 16 -13.44 16 -8 16 C-8 13.36 -8 10.72 -8 8 C-5.36 8 -2.72 8 0 8 C0 5.36 0 2.72 0 0 Z " fill="#000000" transform="translate(312,248)"/>
<path d="M0 0 C2.64 0 5.28 0 8 0 C8 5.28 8 10.56 8 16 C10.64 16 13.28 16 16 16 C16 21.28 16 26.56 16 32 C13.36 32 10.72 32 8 32 C8 42.56 8 53.12 8 64 C2.72 64 -2.56 64 -8 64 C-8 56.08 -8 48.16 -8 40 C-5.36 40 -2.72 40 0 40 C0 26.8 0 13.6 0 0 Z " fill="#BD6968" transform="translate(48,80)"/>
<path d="M0 0 C2.64 0 5.28 0 8 0 C8 13.2 8 26.4 8 40 C5.36 40 2.72 40 0 40 C0 47.92 0 55.84 0 64 C-10.56 64 -21.12 64 -32 64 C-32 58.72 -32 53.44 -32 48 C-29.36 48 -26.72 48 -24 48 C-24 50.64 -24 53.28 -24 56 C-18.72 56 -13.44 56 -8 56 C-8 48.08 -8 40.16 -8 32 C-5.36 32 -2.72 32 0 32 C0 21.44 0 10.88 0 0 Z " fill="#000000" transform="translate(176,0)"/>
<path d="M0 0 C21.12 0 42.24 0 64 0 C64 2.64 64 5.28 64 8 C50.8 8 37.6 8 24 8 C24 13.28 24 18.56 24 24 C21.36 24 18.72 24 16 24 C16 18.72 16 13.44 16 8 C10.72 8 5.44 8 0 8 C0 5.36 0 2.72 0 0 Z " fill="#000000" transform="translate(168,296)"/>
<path d="M0 0 C2.64 0 5.28 0 8 0 C8 21.12 8 42.24 8 64 C5.36 64 2.72 64 0 64 C0 58.72 0 53.44 0 48 C-2.64 48 -5.28 48 -8 48 C-8 42.72 -8 37.44 -8 32 C-5.36 32 -2.72 32 0 32 C0 21.44 0 10.88 0 0 Z " fill="#000000" transform="translate(56,32)"/>
<path d="M0 0 C13.2 0 26.4 0 40 0 C40 7.92 40 15.84 40 24 C37.36 24 34.72 24 32 24 C32 21.36 32 18.72 32 16 C26.72 16 21.44 16 16 16 C16 13.36 16 10.72 16 8 C10.72 8 5.44 8 0 8 C0 5.36 0 2.72 0 0 Z " fill="#135CED" transform="translate(280,0)"/>
<path d="M0 0 C2.64 0 5.28 0 8 0 C8 7.92 8 15.84 8 24 C10.64 24 13.28 24 16 24 C16 29.28 16 34.56 16 40 C13.36 40 10.72 40 8 40 C8 42.64 8 45.28 8 48 C5.36 48 2.72 48 0 48 C0 32.16 0 16.32 0 0 Z " fill="#000000" transform="translate(32,120)"/>
<path d="M0 0 C2.64 0 5.28 0 8 0 C8 5.28 8 10.56 8 16 C10.64 16 13.28 16 16 16 C16 18.64 16 21.28 16 24 C13.36 24 10.72 24 8 24 C8 29.28 8 34.56 8 40 C5.36 40 2.72 40 0 40 C0 26.8 0 13.6 0 0 Z " fill="#000000" transform="translate(112,280)"/>
<path d="M0 0 C10.56 0 21.12 0 32 0 C32 5.28 32 10.56 32 16 C26.72 16 21.44 16 16 16 C16 13.36 16 10.72 16 8 C10.72 8 5.44 8 0 8 C0 5.36 0 2.72 0 0 Z " fill="#DBB1AF" transform="translate(272,272)"/>
<path d="M0 0 C5.28 0 10.56 0 16 0 C16 7.92 16 15.84 16 24 C10.72 24 5.44 24 0 24 C0 16.08 0 8.16 0 0 Z " fill="#975453" transform="translate(80,64)"/>
<path d="M0 0 C2.64 0 5.28 0 8 0 C8 13.2 8 26.4 8 40 C5.36 40 2.72 40 0 40 C0 26.8 0 13.6 0 0 Z " fill="#000000" transform="translate(32,280)"/>
<path d="M0 0 C2.64 0 5.28 0 8 0 C8 5.28 8 10.56 8 16 C-2.56 16 -13.12 16 -24 16 C-24 13.36 -24 10.72 -24 8 C-16.08 8 -8.16 8 0 8 C0 5.36 0 2.72 0 0 Z " fill="#000000" transform="translate(304,88)"/>
<path d="M0 0 C2.64 0 5.28 0 8 0 C8 13.2 8 26.4 8 40 C5.36 40 2.72 40 0 40 C0 26.8 0 13.6 0 0 Z " fill="#000000" transform="translate(40,80)"/>
<path d="M0 0 C2.64 0 5.28 0 8 0 C8 10.56 8 21.12 8 32 C5.36 32 2.72 32 0 32 C0 21.44 0 10.88 0 0 Z " fill="#000000" transform="translate(280,288)"/>
<path d="M0 0 C2.64 0 5.28 0 8 0 C8 2.64 8 5.28 8 8 C13.28 8 18.56 8 24 8 C24 10.64 24 13.28 24 16 C16.08 16 8.16 16 0 16 C0 10.72 0 5.44 0 0 Z " fill="#000000" transform="translate(144,280)"/>
<path d="M0 0 C2.64 0 5.28 0 8 0 C8 10.56 8 21.12 8 32 C5.36 32 2.72 32 0 32 C0 21.44 0 10.88 0 0 Z " fill="#EBB9B7" transform="translate(128,232)"/>
<path d="M0 0 C10.56 0 21.12 0 32 0 C32 2.64 32 5.28 32 8 C21.44 8 10.88 8 0 8 C0 5.36 0 2.72 0 0 Z " fill="#000000" transform="translate(248,88)"/>
<path d="M0 0 C2.64 0 5.28 0 8 0 C8 5.28 8 10.56 8 16 C0.08 16 -7.84 16 -16 16 C-16 13.36 -16 10.72 -16 8 C-10.72 8 -5.44 8 0 8 C0 5.36 0 2.72 0 0 Z " fill="#000000" transform="translate(264,56)"/>
<path d="M0 0 C7.92 0 15.84 0 24 0 C24 2.64 24 5.28 24 8 C18.72 8 13.44 8 8 8 C8 10.64 8 13.28 8 16 C5.36 16 2.72 16 0 16 C0 10.72 0 5.44 0 0 Z " fill="#000000" transform="translate(72,56)"/>
<path d="M0 0 C2.64 0 5.28 0 8 0 C8 10.56 8 21.12 8 32 C5.36 32 2.72 32 0 32 C0 21.44 0 10.88 0 0 Z " fill="#000000" transform="translate(136,16)"/>
<path d="M0 0 C7.92 0 15.84 0 24 0 C24 2.64 24 5.28 24 8 C16.08 8 8.16 8 0 8 C0 5.36 0 2.72 0 0 Z " fill="#000000" transform="translate(232,288)"/>
<path d="M0 0 C7.92 0 15.84 0 24 0 C24 2.64 24 5.28 24 8 C16.08 8 8.16 8 0 8 C0 5.36 0 2.72 0 0 Z " fill="#000000" transform="translate(192,136)"/>
<path d="M0 0 C7.92 0 15.84 0 24 0 C24 2.64 24 5.28 24 8 C16.08 8 8.16 8 0 8 C0 5.36 0 2.72 0 0 Z " fill="#000000" transform="translate(200,56)"/>
<path d="M0 0 C2.64 0 5.28 0 8 0 C8 7.92 8 15.84 8 24 C5.36 24 2.72 24 0 24 C0 16.08 0 8.16 0 0 Z " fill="#000000" transform="translate(272,32)"/>
<path d="M0 0 C2.64 0 5.28 0 8 0 C8 7.92 8 15.84 8 24 C5.36 24 2.72 24 0 24 C0 16.08 0 8.16 0 0 Z " fill="#000000" transform="translate(88,16)"/>
<path d="M0 0 C2.64 0 5.28 0 8 0 C8 7.92 8 15.84 8 24 C5.36 24 2.72 24 0 24 C0 16.08 0 8.16 0 0 Z " fill="#000000" transform="translate(240,8)"/>
<path d="M0 0 C2.64 0 5.28 0 8 0 C8 7.92 8 15.84 8 24 C5.36 24 2.72 24 0 24 C0 16.08 0 8.16 0 0 Z " fill="#000000" transform="translate(64,8)"/>
<path d="M0 0 C7.92 0 15.84 0 24 0 C24 2.64 24 5.28 24 8 C16.08 8 8.16 8 0 8 C0 5.36 0 2.72 0 0 Z " fill="#000000" transform="translate(216,0)"/>
<path d="M0 0 C5.28 0 10.56 0 16 0 C16 2.64 16 5.28 16 8 C10.72 8 5.44 8 0 8 C0 5.36 0 2.72 0 0 Z " fill="#000000" transform="translate(288,280)"/>
<path d="M0 0 C5.28 0 10.56 0 16 0 C16 2.64 16 5.28 16 8 C10.72 8 5.44 8 0 8 C0 5.36 0 2.72 0 0 Z " fill="#000000" transform="translate(256,280)"/>
<path d="M0 0 C5.28 0 10.56 0 16 0 C16 2.64 16 5.28 16 8 C10.72 8 5.44 8 0 8 C0 5.36 0 2.72 0 0 Z " fill="#000000" transform="translate(272,272)"/>
<path d="M0 0 C2.64 0 5.28 0 8 0 C8 5.28 8 10.56 8 16 C5.36 16 2.72 16 0 16 C0 10.72 0 5.44 0 0 Z " fill="#975453" transform="translate(312,248)"/>
<path d="M0 0 C5.28 0 10.56 0 16 0 C16 2.64 16 5.28 16 8 C10.72 8 5.44 8 0 8 C0 5.36 0 2.72 0 0 Z " fill="#000000" transform="translate(296,208)"/>
<path d="M0 0 C2.64 0 5.28 0 8 0 C8 5.28 8 10.56 8 16 C5.36 16 2.72 16 0 16 C0 10.72 0 5.44 0 0 Z " fill="#000000" transform="translate(264,168)"/>
<path d="M0 0 C2.64 0 5.28 0 8 0 C8 5.28 8 10.56 8 16 C5.36 16 2.72 16 0 16 C0 10.72 0 5.44 0 0 Z " fill="#000000" transform="translate(256,152)"/>
<path d="M0 0 C5.28 0 10.56 0 16 0 C16 2.64 16 5.28 16 8 C10.72 8 5.44 8 0 8 C0 5.36 0 2.72 0 0 Z " fill="#000000" transform="translate(168,152)"/>
<path d="M0 0 C2.64 0 5.28 0 8 0 C8 5.28 8 10.56 8 16 C5.36 16 2.72 16 0 16 C0 10.72 0 5.44 0 0 Z " fill="#000000" transform="translate(248,136)"/>
<path d="M0 0 C5.28 0 10.56 0 16 0 C16 2.64 16 5.28 16 8 C10.72 8 5.44 8 0 8 C0 5.36 0 2.72 0 0 Z " fill="#000000" transform="translate(216,128)"/>
<path d="M0 0 C5.28 0 10.56 0 16 0 C16 2.64 16 5.28 16 8 C10.72 8 5.44 8 0 8 C0 5.36 0 2.72 0 0 Z " fill="#000000" transform="translate(88,96)"/>
<path d="M0 0 C5.28 0 10.56 0 16 0 C16 2.64 16 5.28 16 8 C10.72 8 5.44 8 0 8 C0 5.36 0 2.72 0 0 Z " fill="#000000" transform="translate(112,80)"/>
<path d="M0 0 C5.28 0 10.56 0 16 0 C16 2.64 16 5.28 16 8 C10.72 8 5.44 8 0 8 C0 5.36 0 2.72 0 0 Z " fill="#000000" transform="translate(80,80)"/>
<path d="M0 0 C2.64 0 5.28 0 8 0 C8 5.28 8 10.56 8 16 C5.36 16 2.72 16 0 16 C0 10.72 0 5.44 0 0 Z " fill="#000000" transform="translate(96,64)"/>
<path d="M0 0 C2.64 0 5.28 0 8 0 C8 5.28 8 10.56 8 16 C5.36 16 2.72 16 0 16 C0 10.72 0 5.44 0 0 Z " fill="#000000" transform="translate(240,48)"/>
<path d="M0 0 C2.64 0 5.28 0 8 0 C8 5.28 8 10.56 8 16 C5.36 16 2.72 16 0 16 C0 10.72 0 5.44 0 0 Z " fill="#000000" transform="translate(192,40)"/>
<path d="M0 0 C2.64 0 5.28 0 8 0 C8 5.28 8 10.56 8 16 C5.36 16 2.72 16 0 16 C0 10.72 0 5.44 0 0 Z " fill="#000000" transform="translate(96,40)"/>
<path d="M0 0 C2.64 0 5.28 0 8 0 C8 5.28 8 10.56 8 16 C5.36 16 2.72 16 0 16 C0 10.72 0 5.44 0 0 Z " fill="#000000" transform="translate(248,32)"/>
<path d="M0 0 C2.64 0 5.28 0 8 0 C8 5.28 8 10.56 8 16 C5.36 16 2.72 16 0 16 C0 10.72 0 5.44 0 0 Z " fill="#C2B7B6" transform="translate(240,32)"/>
<path d="M0 0 C2.64 0 5.28 0 8 0 C8 5.28 8 10.56 8 16 C5.36 16 2.72 16 0 16 C0 10.72 0 5.44 0 0 Z " fill="#000000" transform="translate(232,32)"/>
<path d="M0 0 C5.28 0 10.56 0 16 0 C16 2.64 16 5.28 16 8 C10.72 8 5.44 8 0 8 C0 5.36 0 2.72 0 0 Z " fill="#000000" transform="translate(256,24)"/>
<path d="M0 0 C2.64 0 5.28 0 8 0 C8 5.28 8 10.56 8 16 C5.36 16 2.72 16 0 16 C0 10.72 0 5.44 0 0 Z " fill="#000000" transform="translate(200,24)"/>
<path d="M0 0 C2.64 0 5.28 0 8 0 C8 5.28 8 10.56 8 16 C5.36 16 2.72 16 0 16 C0 10.72 0 5.44 0 0 Z " fill="#975453" transform="translate(288,8)"/>
<path d="M0 0 C5.28 0 10.56 0 16 0 C16 2.64 16 5.28 16 8 C10.72 8 5.44 8 0 8 C0 5.36 0 2.72 0 0 Z " fill="#000000" transform="translate(296,8)"/>
<path d="M0 0 C2.64 0 5.28 0 8 0 C8 5.28 8 10.56 8 16 C5.36 16 2.72 16 0 16 C0 10.72 0 5.44 0 0 Z " fill="#000000" transform="translate(208,8)"/>
<path d="M0 0 C5.28 0 10.56 0 16 0 C16 2.64 16 5.28 16 8 C10.72 8 5.44 8 0 8 C0 5.36 0 2.72 0 0 Z " fill="#000000" transform="translate(280,0)"/>
<path d="M0 0 C2.64 0 5.28 0 8 0 C8 5.28 8 10.56 8 16 C5.36 16 2.72 16 0 16 C0 10.72 0 5.44 0 0 Z " fill="#000000" transform="translate(144,0)"/>
<path d="M0 0 C2.64 0 5.28 0 8 0 C8 2.64 8 5.28 8 8 C5.36 8 2.72 8 0 8 C0 5.36 0 2.72 0 0 Z " fill="#000000" transform="translate(128,288)"/>
<path d="M0 0 C2.64 0 5.28 0 8 0 C8 2.64 8 5.28 8 8 C5.36 8 2.72 8 0 8 C0 5.36 0 2.72 0 0 Z " fill="#BD6968" transform="translate(120,280)"/>
<path d="M0 0 C2.64 0 5.28 0 8 0 C8 2.64 8 5.28 8 8 C5.36 8 2.72 8 0 8 C0 5.36 0 2.72 0 0 Z " fill="#000000" transform="translate(312,216)"/>
<path d="M0 0 C2.64 0 5.28 0 8 0 C8 2.64 8 5.28 8 8 C5.36 8 2.72 8 0 8 C0 5.36 0 2.72 0 0 Z " fill="#000000" transform="translate(288,200)"/>
<path d="M0 0 C2.64 0 5.28 0 8 0 C8 2.64 8 5.28 8 8 C5.36 8 2.72 8 0 8 C0 5.36 0 2.72 0 0 Z " fill="#000000" transform="translate(280,192)"/>
<path d="M0 0 C2.64 0 5.28 0 8 0 C8 2.64 8 5.28 8 8 C5.36 8 2.72 8 0 8 C0 5.36 0 2.72 0 0 Z " fill="#000000" transform="translate(272,184)"/>
<path d="M0 0 C2.64 0 5.28 0 8 0 C8 2.64 8 5.28 8 8 C5.36 8 2.72 8 0 8 C0 5.36 0 2.72 0 0 Z " fill="#000000" transform="translate(160,160)"/>
<path d="M0 0 C2.64 0 5.28 0 8 0 C8 2.64 8 5.28 8 8 C5.36 8 2.72 8 0 8 C0 5.36 0 2.72 0 0 Z " fill="#000000" transform="translate(112,160)"/>
<path d="M0 0 C2.64 0 5.28 0 8 0 C8 2.64 8 5.28 8 8 C5.36 8 2.72 8 0 8 C0 5.36 0 2.72 0 0 Z " fill="#000000" transform="translate(104,152)"/>
<path d="M0 0 C2.64 0 5.28 0 8 0 C8 2.64 8 5.28 8 8 C5.36 8 2.72 8 0 8 C0 5.36 0 2.72 0 0 Z " fill="#000000" transform="translate(184,144)"/>
<path d="M0 0 C2.64 0 5.28 0 8 0 C8 2.64 8 5.28 8 8 C5.36 8 2.72 8 0 8 C0 5.36 0 2.72 0 0 Z " fill="#000000" transform="translate(96,144)"/>
<path d="M0 0 C2.64 0 5.28 0 8 0 C8 2.64 8 5.28 8 8 C5.36 8 2.72 8 0 8 C0 5.36 0 2.72 0 0 Z " fill="#000000" transform="translate(88,136)"/>
<path d="M0 0 C2.64 0 5.28 0 8 0 C8 2.64 8 5.28 8 8 C5.36 8 2.72 8 0 8 C0 5.36 0 2.72 0 0 Z " fill="#000000" transform="translate(48,136)"/>
<path d="M0 0 C2.64 0 5.28 0 8 0 C8 2.64 8 5.28 8 8 C5.36 8 2.72 8 0 8 C0 5.36 0 2.72 0 0 Z " fill="#000000" transform="translate(240,128)"/>
<path d="M0 0 C2.64 0 5.28 0 8 0 C8 2.64 8 5.28 8 8 C5.36 8 2.72 8 0 8 C0 5.36 0 2.72 0 0 Z " fill="#000000" transform="translate(232,120)"/>
<path d="M0 0 C2.64 0 5.28 0 8 0 C8 2.64 8 5.28 8 8 C5.36 8 2.72 8 0 8 C0 5.36 0 2.72 0 0 Z " fill="#C2B7B6" transform="translate(96,56)"/>
<path d="M0 0 C2.64 0 5.28 0 8 0 C8 2.64 8 5.28 8 8 C5.36 8 2.72 8 0 8 C0 5.36 0 2.72 0 0 Z " fill="#000000" transform="translate(224,48)"/>
<path d="M0 0 C2.64 0 5.28 0 8 0 C8 2.64 8 5.28 8 8 C5.36 8 2.72 8 0 8 C0 5.36 0 2.72 0 0 Z " fill="#000000" transform="translate(312,16)"/>
<path d="M0 0 C2.64 0 5.28 0 8 0 C8 2.64 8 5.28 8 8 C5.36 8 2.72 8 0 8 C0 5.36 0 2.72 0 0 Z " fill="#BD6968" transform="translate(288,8)"/>
<path d="M0 0 C2.64 0 5.28 0 8 0 C8 2.64 8 5.28 8 8 C5.36 8 2.72 8 0 8 C0 5.36 0 2.72 0 0 Z " fill="#000000" transform="translate(112,8)"/>
<path d="M0 0 C2.64 0 5.28 0 8 0 C8 2.64 8 5.28 8 8 C5.36 8 2.72 8 0 8 C0 5.36 0 2.72 0 0 Z " fill="#000000" transform="translate(96,8)"/>
<path d="M0 0 C2.64 0 5.28 0 8 0 C8 2.64 8 5.28 8 8 C5.36 8 2.72 8 0 8 C0 5.36 0 2.72 0 0 Z " fill="#000000" transform="translate(104,0)"/>
<path d="M0 0 C2.64 0 5.28 0 8 0 C8 2.64 8 5.28 8 8 C5.36 8 2.72 8 0 8 C0 5.36 0 2.72 0 0 Z " fill="#000000" transform="translate(72,0)"/>
</svg>
